<svg xmlns="http://www.w3.org/2000/svg" viewBox="0 0 512 512">
  <defs>
    <linearGradient id="g" x1="0" y1="0" x2="1" y2="1">
      <stop offset="0%" stop-color="#ffc6d5"/>
      <stop offset="100%" stop-color="#f25c87"/>
    </linearGradient>
  </defs>
  <rect width="512" height="512" rx="96" fill="url(#g)"/>
  <path fill="#ffffff" d="M256 122c-22 0-40 18-40 40v18l-94 60c-9 6-13 18-9 28l16 36c4 9 14 14 24 11l43-13v110c0 12 9 22 21 22h78c12 0 21-10 21-22V302l43 13c10 3 20-2 24-11l16-36c4-10 0-22-9-28l-94-60v-18c0-22-18-40-40-40zm0 32c5 0 8 3 8 8v6h-16v-6c0-5 3-8 8-8z"/>
</svg>
